<svg width="160" height="24" viewBox="0 0 160 24" fill="none" xmlns="http://www.w3.org/2000/svg">
<path d="M129.997 0C128.966 0 128.216 0.719103 128.216 1.71874C128.216 2.62267 128.863 3.39078 129.95 3.39078C131.059 3.39078 131.73 2.5187 131.7 1.62008C131.666 0.655004 130.896 0 129.997 0ZM147.839 0.197269C147.483 0.197269 147.289 0.261874 147.289 0.716524V22.458C147.289 22.91 147.387 22.9721 147.839 22.9721H149.542C149.997 22.9721 150.155 22.9704 150.155 22.4891V0.654206C150.155 0.194265 149.933 0.197269 149.542 0.197269H147.839ZM122.473 0.290853C121.933 0.290853 121.865 0.491579 121.865 1.00743V6.85432C120.861 6.32791 119.863 5.97676 118.345 5.97676C113.347 5.97676 110.774 10.7155 110.774 14.6848C110.774 20.563 114.024 23.4603 118.932 23.4603C121.346 23.4603 124.706 22.2649 124.706 21.2015V0.945112C124.706 0.362875 124.543 0.290853 124.062 0.290853H122.473ZM6.4752 5.8781C4.02395 5.8781 2.34748 6.35934 1.44355 6.65178C0.348199 7.00272 0 7.42292 0 7.97591V22.3594C0 22.9124 0.155529 22.9722 0.607521 22.9722H2.18608C2.63804 22.9722 2.87152 22.9105 2.87152 22.3283V9.1079C2.87152 8.36082 4.09605 7.62282 6.35056 7.62282C10.1178 7.62282 10.1204 10.0407 10.1204 11.5588V22.3283C10.1204 22.9105 10.3211 22.9722 10.837 22.9722H12.6129C12.9585 22.911 12.9919 22.6154 12.9919 22.3283V11.1953C12.9919 9.29974 12.9568 5.8781 6.4752 5.8781ZM22.7644 5.8781C21.2836 5.8781 19.741 6.26937 18.5792 7.07759C16.7075 8.33246 15.4844 10.8138 15.4844 14.6848C15.4844 18.5238 16.7075 21.0032 18.5792 22.2608C19.7436 23.0663 21.2862 23.4603 22.7644 23.4603C24.2559 23.4603 25.8034 23.0664 26.9653 22.2608C28.8316 21.0033 30.06 18.5238 30.06 14.6848C30.06 10.8138 28.8316 8.33246 26.9653 7.07759C25.8008 6.26937 24.2532 5.8781 22.7644 5.8781ZM52.2325 5.8781C50.749 5.8781 49.1987 6.26937 48.0369 7.07759C46.1732 8.33246 44.9421 10.8138 44.9421 14.6848C44.9421 18.5238 46.1732 21.0032 48.0369 22.2608C49.2014 23.0663 50.7516 23.4603 52.2325 23.4603C53.724 23.4603 55.2664 23.0664 56.4229 22.2608C58.2973 21.0033 59.5229 18.5238 59.5229 14.6848C59.5229 10.8138 58.2973 8.33246 56.4229 7.07759C55.2638 6.26937 53.7213 5.8781 52.2325 5.8781ZM75.4383 5.8781C72.9817 5.8781 71.3079 6.35934 70.4067 6.65178C69.3113 7.00272 68.9527 7.42292 68.9527 7.97591V22.3594C68.9527 22.9124 69.1109 22.9722 69.5654 22.9722H71.144C71.5906 22.9722 71.8242 22.9105 71.8242 22.3283V9.1079C71.8242 8.36082 73.0433 7.62282 75.3085 7.62282C79.0757 7.62282 79.0783 10.0407 79.0783 11.5588V22.3283C79.0783 22.9105 79.2687 22.9722 79.7897 22.9722H81.5656C81.9165 22.911 81.9498 22.6154 81.9498 22.3283V11.1953C81.9498 9.29974 81.9121 5.8781 75.4383 5.8781ZM91.7223 5.8781C90.2468 5.8781 88.6911 6.26937 87.5319 7.07759C85.6629 8.33246 84.4423 10.8138 84.4423 14.6848C84.4423 18.5238 85.6629 21.0032 87.5319 22.2608C88.6937 23.0663 90.2495 23.4603 91.7223 23.4603C93.2085 23.4603 94.7614 23.0664 95.9232 22.2608C97.7922 21.0033 99.0232 18.5238 99.0232 14.6848C99.0232 10.8138 97.7922 8.33246 95.9232 7.07759C94.7587 6.26937 93.2085 5.8781 91.7223 5.8781ZM106.324 5.8781C104.583 5.8781 103.485 6.16885 102.648 6.39217C101.547 6.68994 101.157 7.16593 101.157 7.71627V22.427C101.157 22.948 101.354 22.9722 101.806 22.9722H103.447C103.835 22.9722 104.034 22.9482 104.034 22.427V8.94692C104.034 8.07223 104.707 7.48779 105.675 7.48779C107.741 7.48779 108.061 9.01442 109.164 9.01442C109.909 9.01442 110.514 8.48849 110.514 7.55532C110.514 6.39081 108.549 5.8781 106.324 5.8781ZM140.024 5.97673C137.086 5.97673 134.515 7.55768 134.515 10.5566C134.515 13.3295 136.477 14.5238 138.83 15.5208C140.704 16.3024 142.444 17.0057 142.444 18.7817C142.444 20.1057 141.378 21.6221 139.126 21.6221C136.863 21.6221 136.215 19.9397 135.122 19.9397C134.577 19.9397 133.892 20.1667 133.892 21.0042C133.892 22.3281 136.481 23.4603 139.089 23.4603C141.993 23.4603 145.025 21.9133 145.025 18.4598C145.025 13.0362 137.09 13.8781 137.09 10.297C137.09 9.07137 138.055 7.80972 139.858 7.80972C141.735 7.80972 142.224 9.04037 143.181 9.04037C143.67 9.04037 144.344 8.75116 144.344 7.90838C144.344 6.68807 142.249 5.97671 140.024 5.97673ZM31.0363 6.26751C30.9033 6.26751 30.5845 6.26485 30.5845 6.65176C30.5845 6.78203 30.6374 6.94655 30.7092 7.10872L36.5457 22.4581C36.7079 22.8436 36.7759 22.9456 37.0286 22.9721H38.2904C38.6759 22.9721 38.741 22.944 38.9031 22.4892L44.5475 7.10872C44.6778 6.72056 44.6772 6.65314 44.6772 6.59465C44.6772 6.26498 44.4188 6.26751 44.2566 6.26751H42.6469C42.4183 6.29675 42.3584 6.3922 42.2627 6.71926L38.067 19.005L33.7052 6.78676C33.5457 6.33214 33.483 6.26751 32.999 6.26751H31.0363ZM129.062 6.26751C128.515 6.26751 128.512 6.45228 128.512 6.87505V22.3958C128.512 22.8451 128.514 22.9721 128.995 22.9721H130.74C131.221 22.9721 131.384 22.9456 131.384 22.3958V6.87505C131.384 6.35928 131.253 6.26751 130.74 6.26751H129.062ZM157.445 6.26751C156.871 6.26751 156.611 6.2372 156.443 6.75042C155.542 9.51804 153.161 12.4915 150.742 13.9059C150.649 13.975 150.612 14.0686 150.612 14.1031C150.612 14.1696 150.645 14.2321 150.674 14.2693L156.417 22.4892C156.741 22.9704 156.87 22.9721 157.378 22.9721H159.574C159.683 22.9721 160 22.9482 160 22.619C160 22.4621 159.905 22.3579 159.772 22.1932L153.65 14.1031L153.613 14.0667C155.748 12.4901 157.995 9.97615 159.361 7.26436C159.516 6.94266 159.538 6.81457 159.538 6.62049C159.538 6.3307 159.376 6.26737 158.962 6.26737L157.445 6.26751ZM22.7644 7.7474C23.8997 7.7474 24.6989 7.97445 25.5736 8.8067C26.4776 9.65746 27.0899 11.6167 27.0899 14.6847C27.0899 17.7182 26.4776 19.681 25.5736 20.5264C24.7016 21.3665 23.8997 21.5857 22.7644 21.5857C21.6425 21.5857 20.8299 21.3667 19.9552 20.5264C19.0566 19.681 18.4494 17.7182 18.4494 14.6847C18.4494 11.6167 19.0566 9.65746 19.9552 8.8067C20.8299 7.97455 21.6425 7.7474 22.7644 7.7474ZM52.2273 7.7474C53.3572 7.7474 54.1618 7.97445 55.0365 8.8067C55.9431 9.65746 56.558 11.6167 56.558 14.6847C56.558 17.7182 55.9431 19.681 55.0365 20.5264C54.1618 21.3665 53.3572 21.5857 52.2273 21.5857C51.1027 21.5857 50.2928 21.3667 49.4181 20.5264C48.5168 19.681 47.9071 17.7182 47.9071 14.6847C47.9071 11.6167 48.5168 9.65746 49.4181 8.8067C50.2928 7.97455 51.1027 7.7474 52.2273 7.7474ZM91.7223 7.7474C92.8549 7.7474 93.662 7.97445 94.5367 8.8067C95.4353 9.65746 96.0478 11.6167 96.0478 14.6847C96.0478 17.7182 95.4353 19.681 94.5367 20.5264C93.6647 21.3665 92.8549 21.5857 91.7223 21.5857C90.5977 21.5857 89.7876 21.3667 88.9235 20.5264C88.0143 19.681 87.4021 17.7182 87.4021 14.6847C87.4021 11.6167 88.0143 9.65746 88.9235 8.8067C89.7876 7.97455 90.5977 7.7474 91.7223 7.7474ZM118.771 7.93962C120.454 7.93962 121.251 8.45186 121.865 8.97294V20.2617C121.865 21.1045 120.511 21.5546 119.025 21.5546C115.901 21.5546 113.677 18.9413 113.677 14.4616C113.677 10.5534 115.804 7.93962 118.771 7.93962Z" fill="#004F93"/>
</svg>
